<svg xmlns="http://www.w3.org/2000/svg" width="960" height="960" viewBox="0 0 960 960">
    <rect id="矩形_1" width="960" height="960" fill="none"/>
    <path id="排除_1"
          d="M596,851H94a101.024,101.024,0,0,1-18.8-1.717,87.815,87.815,0,0,1-33.262-13.738,102.45,102.45,0,0,1-26.481-26.481A87.819,87.819,0,0,1,1.717,775.8,101.032,101.032,0,0,1,0,757V95A103.153,103.153,0,0,1,1.717,76,89.274,89.274,0,0,1,15.455,42.384,103,103,0,0,1,41.936,15.62,87.315,87.315,0,0,1,75.2,1.736,99.982,99.982,0,0,1,94,0H417a90.166,90.166,0,0,1,18.945,2,91.945,91.945,0,0,1,18.212,6,108.432,108.432,0,0,1,16.633,9.25A98.686,98.686,0,0,1,485,29L662,206a98.678,98.678,0,0,1,11.75,14.211A108.426,108.426,0,0,1,683,236.844a91.952,91.952,0,0,1,6,18.212A90.163,90.163,0,0,1,691,274V757a99.986,99.986,0,0,1-1.736,18.8,87.31,87.31,0,0,1-13.885,33.263,103.02,103.02,0,0,1-26.764,26.481A89.264,89.264,0,0,1,615,849.283,103.147,103.147,0,0,1,596,851ZM190.706,530.925a38.707,38.707,0,0,0,0,77.413H395.273l-46.2,37.414a38.694,38.694,0,1,0,48.7,60.142l120.318-97.431a38.477,38.477,0,0,0,9.6-11.491,38.678,38.678,0,0,0-.975-55.623,38.633,38.633,0,0,0-8.625-9.8L397.8,434.129A38.714,38.714,0,0,0,349.069,494.3L394.3,530.925ZM407,95V234a47.97,47.97,0,0,0,3.406,18.219,47.854,47.854,0,0,0,25.375,25.375A47.97,47.97,0,0,0,454,281H596Z"
          transform="translate(135 55)"/>
</svg>
