<svg xmlns="http://www.w3.org/2000/svg" width="960" height="960" viewBox="0 0 960 960">
    <rect id="矩形_1" width="960" height="960" fill="none"/>
    <path id="排除_1"
          d="M756,702H94a99.26,99.26,0,0,1-18.8-1.748,86.962,86.962,0,0,1-33.262-13.987,100.255,100.255,0,0,1-14.461-12.239,104.421,104.421,0,0,1-12.02-14.617,90.628,90.628,0,0,1-8.586-15.877A88.319,88.319,0,0,1,1.717,626.4,97.176,97.176,0,0,1,0,608V95A99.258,99.258,0,0,1,1.717,76.406a89.976,89.976,0,0,1,5.152-17.32A91.89,91.89,0,0,1,15.455,43.04a105.261,105.261,0,0,1,12.02-14.771A100.524,100.524,0,0,1,41.936,15.9,86.485,86.485,0,0,1,75.2,1.767,98.276,98.276,0,0,1,94,0H315a83.137,83.137,0,0,1,18,2,95.519,95.519,0,0,1,18,6,108.475,108.475,0,0,1,16.75,9.25A97.593,97.593,0,0,1,382,29l43,42H756a96.551,96.551,0,0,1,18.594,1.767,88.077,88.077,0,0,1,17.32,5.3A91.074,91.074,0,0,1,807.96,86.9,109.187,109.187,0,0,1,835.1,114.04a91.07,91.07,0,0,1,8.834,16.045,88.078,88.078,0,0,1,5.3,17.32A96.55,96.55,0,0,1,851,166V608a94.531,94.531,0,0,1-1.767,18.4,86.467,86.467,0,0,1-5.3,17.136,89.852,89.852,0,0,1-8.834,15.876,108.622,108.622,0,0,1-27.139,26.856,91.366,91.366,0,0,1-16.046,8.742,88.773,88.773,0,0,1-17.32,5.245A97.519,97.519,0,0,1,756,702ZM270.707,353.925a38.707,38.707,0,0,0,0,77.414H475.273l-46.2,37.414a38.694,38.694,0,1,0,48.7,60.142l120.318-97.431a38.484,38.484,0,0,0,9.6-11.491,38.677,38.677,0,0,0-.975-55.622,38.644,38.644,0,0,0-8.625-9.805L477.8,257.128A38.714,38.714,0,0,0,429.069,317.3L474.3,353.925Z"
          transform="translate(54 129)"/>
</svg>
