<?xml version="1.0" standalone="no"?><!DOCTYPE svg PUBLIC "-//W3C//DTD SVG 1.1//EN" "http://www.w3.org/Graphics/SVG/1.1/DTD/svg11.dtd">
<svg t="1671692812923" class="icon" viewBox="0 0 1024 1024" version="1.1" xmlns="http://www.w3.org/2000/svg" p-id="4237"
     xmlns:xlink="http://www.w3.org/1999/xlink" width="200" height="200">
    <path d="M510.898411 735.181035c-31.081902 0-56.30947 25.050536-56.30947 55.932893s25.227568 55.932893 56.30947 55.932893c31.106462 0 56.308447-25.050536 56.308447-55.932893S542.004873 735.181035 510.898411 735.181035zM736.132198 63.906495l-450.469622 0c-46.647413 0-84.46267 37.564547-84.46267 83.912132l0 727.207433c0 46.324048 37.815257 83.888596 84.46267 83.888596l450.469622 0c46.64946 0 84.46267-37.564547 84.46267-83.888596L820.594869 147.818627C820.594869 101.471043 782.781658 63.906495 736.132198 63.906495zM764.287445 847.046822c0 30.882358-25.200962 55.933917-56.30947 55.933917L313.817824 902.980739c-31.081902 0-56.30947-25.051559-56.30947-55.933917L257.508353 175.773306c0-30.882358 25.227568-55.933917 56.30947-55.933917L707.977975 119.839389c31.108508 0 56.30947 25.050536 56.30947 55.933917L764.287445 847.046822zM567.206858 175.773306 454.587917 175.773306c-15.540951 0-28.1532 12.538571-28.1532 27.978215 0 15.441691 12.612249 27.979238 28.1532 27.979238l112.61894 0c15.540951 0 28.155247-12.536524 28.155247-27.979238C595.362104 188.311877 582.747809 175.773306 567.206858 175.773306z"
          fill="#808080" p-id="4238"></path>
</svg>