<svg xmlns="http://www.w3.org/2000/svg" height="48" width="48">
    <path d="M36.5 45.3q-.75 0-1.275-.525-.525-.525-.525-1.275v-5.2h-5.2q-.75 0-1.275-.525-.525-.525-.525-1.275 0-.75.525-1.3t1.275-.55h5.2V29.5q0-.75.525-1.3t1.275-.55q.75 0 1.3.55t.55 1.3v5.15h5.15q.75 0 1.3.55t.55 1.3q0 .75-.55 1.275-.55.525-1.3.525h-5.15v5.2q0 .75-.55 1.275-.55.525-1.3.525ZM9.7 34.65V29.5q0-.75.525-1.3t1.275-.55q.75 0 1.3.55t.55 1.3v5.15h5.15q.75 0 1.3.55t.55 1.3q0 .75-.55 1.275-.55.525-1.3.525h-5.15q-1.55 0-2.6-1.05t-1.05-2.6Zm1.8-14.35q-.75 0-1.275-.525Q9.7 19.25 9.7 18.5v-5.2q0-1.5 1.05-2.575 1.05-1.075 2.6-1.075h5.15q.75 0 1.3.55t.55 1.3q0 .75-.55 1.275-.55.525-1.3.525h-5.15v5.2q0 .75-.55 1.275-.55.525-1.3.525Zm25 0q-.75 0-1.275-.525-.525-.525-.525-1.275v-5.2h-5.2q-.75 0-1.275-.525-.525-.525-.525-1.275 0-.75.525-1.3t1.275-.55h5.2q1.5 0 2.575 1.075Q38.35 11.8 38.35 13.3v5.2q0 .75-.55 1.275-.55.525-1.3.525Z"/>
</svg>