<svg viewBox="0 0 1030 1030" xmlns:xlink="http://www.w3.org/1999/xlink" xmlns="http://www.w3.org/2000/svg" id="图层_1">
    <defs>
        <style>
            .cls-1{fill:#fff;}.cls-2{opacity:0.5;}.cls-3{fill:url(#未命名的渐变_144);}.cls-4{fill:url(#未命名的渐变_144-2);}.cls-5{fill:url(#未命名的渐变_144-3);}.cls-6{fill:url(#未命名的渐变_214);}.cls-7{fill:#ccc;}.cls-8{fill:#ebebeb;}.cls-9{fill:url(#未命名的渐变_214-2);}.cls-10{fill:url(#未命名的渐变_214-3);}.cls-11{fill:#dbdbdb;}.cls-12{fill:url(#未命名的渐变_96);}.cls-13{fill:url(#未命名的渐变_96-2);}.cls-14{fill:url(#未命名的渐变_96-3);}.cls-15{fill:url(#未命名的渐变_96-4);}.cls-16{fill:url(#未命名的渐变_96-5);}.cls-17{fill:url(#未命名的渐变_6);}.cls-18{fill:url(#未命名的渐变_6-2);}.cls-19{fill:url(#未命名的渐变_402);}.cls-20{fill:url(#未命名的渐变_402-2);}.cls-21{fill:url(#未命名的渐变_402-3);}.cls-22{fill:url(#未命名的渐变_6-3);}.cls-23{fill:url(#未命名的渐变_6-4);}.cls-24{fill:url(#未命名的渐变_6-5);}.cls-25{fill:url(#未命名的渐变_402-4);}.cls-26{fill:url(#未命名的渐变_402-5);}.cls-27{fill:url(#未命名的渐变_6-6);}.cls-28{fill:url(#未命名的渐变_402-6);}.cls-29{fill:url(#未命名的渐变_402-7);}.cls-30{fill:url(#未命名的渐变_6-7);}.cls-31{fill:url(#未命名的渐变_1114);}.cls-32{fill:url(#未命名的渐变_1114-2);}.cls-33{fill:url(#未命名的渐变_402-8);}.cls-34{fill:url(#未命名的渐变_402-9);}.cls-35{fill:url(#未命名的渐变_6-8);}.cls-36{fill:url(#未命名的渐变_8);}
        </style>
        <linearGradient gradientUnits="userSpaceOnUse" y2="607.11" x2="270.65" y1="701.65" x1="270.65" id="未命名的渐变_144">
            <stop stop-opacity="0" stop-color="#ebebeb" offset="0"></stop>
            <stop stop-opacity="0.02" stop-color="#ebebeb" offset="0.01"></stop>
            <stop stop-opacity="0.25" stop-color="#eaeaea" offset="0.12"></stop>
            <stop stop-opacity="0.45" stop-color="#e9e9e9" offset="0.23"></stop>
            <stop stop-opacity="0.62" stop-color="#e8e8e8" offset="0.34"></stop>
            <stop stop-opacity="0.76" stop-color="#e7e7e7" offset="0.46"></stop>
            <stop stop-opacity="0.86" stop-color="#e7e7e7" offset="0.58"></stop>
            <stop stop-opacity="0.94" stop-color="#e6e6e6" offset="0.71"></stop>
            <stop stop-opacity="0.99" stop-color="#e6e6e6" offset="0.84"></stop>
            <stop stop-color="#e6e6e6" offset="1"></stop>
        </linearGradient>
        <linearGradient xlink:href="#未命名的渐变_144" y2="742.47" x2="147.35" y1="837.01" x1="147.35"
                        id="未命名的渐变_144-2"></linearGradient>
        <linearGradient xlink:href="#未命名的渐变_144" gradientTransform="matrix(-1, 0, 0, 1, -3937.69, 0)" y2="665.36" x2="-4702.6"
                        y1="837.01" x1="-4702.6" id="未命名的渐变_144-3"></linearGradient>
        <linearGradient gradientUnits="userSpaceOnUse" y2="902.91" x2="817.84" y1="902.91" x1="755.73" id="未命名的渐变_214">
            <stop stop-color="#8c8c8c" offset="0"></stop>
            <stop stop-color="#878787" offset="0.23"></stop>
            <stop stop-color="#777" offset="0.51"></stop>
            <stop stop-color="#5e5e5e" offset="0.82"></stop>
            <stop stop-color="#4d4d4d" offset="1"></stop>
        </linearGradient>
        <linearGradient xlink:href="#未命名的渐变_214" y2="925.81" x2="341.36" y1="925.81" x1="307.08"
                        id="未命名的渐变_214-2"></linearGradient>
        <linearGradient xlink:href="#未命名的渐变_214" y2="909.54" x2="287.21" y1="909.54" x1="235.91"
                        id="未命名的渐变_214-3"></linearGradient>
        <linearGradient gradientUnits="userSpaceOnUse" y2="514.72" x2="715.45" y1="514.72" x1="698.81" id="未命名的渐变_96">
            <stop stop-color="#f2f2f2" offset="0"></stop>
            <stop stop-color="#ededed" offset="0.31"></stop>
            <stop stop-color="#dedede" offset="0.69"></stop>
            <stop stop-color="#ccc" offset="1"></stop>
        </linearGradient>
        <linearGradient xlink:href="#未命名的渐变_96" y2="806.38" x2="849.56" y1="806.38" x1="816.28"
                        id="未命名的渐变_96-2"></linearGradient>
        <linearGradient xlink:href="#未命名的渐变_96" y2="488.37" x2="709.07" y1="488.37" x1="669.14"
                        id="未命名的渐变_96-3"></linearGradient>
        <linearGradient xlink:href="#未命名的渐变_96" y2="842.58" x2="208.45" y1="842.58" x1="184.05"
                        id="未命名的渐变_96-4"></linearGradient>
        <linearGradient xlink:href="#未命名的渐变_96" y2="799.87" x2="244.23" y1="799.87" x1="180.44"
                        id="未命名的渐变_96-5"></linearGradient>
        <linearGradient gradientUnits="userSpaceOnUse" y2="707.03" x2="750.52" y1="707.03" x1="721.98" id="未命名的渐变_6">
            <stop stop-color="#9e9e9e" offset="0"></stop>
            <stop stop-color="#999" offset="0.22"></stop>
            <stop stop-color="#898989" offset="0.49"></stop>
            <stop stop-color="#707070" offset="0.78"></stop>
            <stop stop-color="#595959" offset="1"></stop>
        </linearGradient>
        <linearGradient xlink:href="#未命名的渐变_6" y2="708.55" x2="730.66" y1="577.6" x1="655.05" id="未命名的渐变_6-2"></linearGradient>
        <linearGradient gradientUnits="userSpaceOnUse" y2="705.99" x2="766.6" y1="705.99" x1="716.01" id="未命名的渐变_402">
            <stop stop-color="#cfcfcf" offset="0"></stop>
            <stop stop-color="#cacaca" offset="0.17"></stop>
            <stop stop-color="#bababa" offset="0.39"></stop>
            <stop stop-color="#a1a1a1" offset="0.62"></stop>
            <stop stop-color="#7e7e7e" offset="0.87"></stop>
            <stop stop-color="#696969" offset="1"></stop>
        </linearGradient>
        <linearGradient xlink:href="#未命名的渐变_402" y2="699.25" x2="747.65" y1="699.25" x1="702.71"
                        id="未命名的渐变_402-2"></linearGradient>
        <linearGradient xlink:href="#未命名的渐变_402" y2="704.22" x2="377.56" y1="669.41" x1="357.46"
                        id="未命名的渐变_402-3"></linearGradient>
        <linearGradient xlink:href="#未命名的渐变_6" y2="702.23" x2="394.51" y1="605.06" x1="338.41" id="未命名的渐变_6-3"></linearGradient>
        <linearGradient xlink:href="#未命名的渐变_6" y2="583.01" x2="630.99" y1="583.01" x1="426.82" id="未命名的渐变_6-4"></linearGradient>
        <linearGradient xlink:href="#未命名的渐变_6" y2="712.58" x2="700.83" y1="665.57" x1="673.68" id="未命名的渐变_6-5"></linearGradient>
        <linearGradient xlink:href="#未命名的渐变_402" y2="699.21" x2="355.1" y1="699.21" x1="310.29"
                        id="未命名的渐变_402-4"></linearGradient>
        <linearGradient xlink:href="#未命名的渐变_402" y2="705.99" x2="341.82" y1="705.99" x1="291.23"
                        id="未命名的渐变_402-5"></linearGradient>
        <linearGradient xlink:href="#未命名的渐变_6" y2="707.04" x2="335.83" y1="707.04" x1="307.29" id="未命名的渐变_6-6"></linearGradient>
        <linearGradient xlink:href="#未命名的渐变_402" y2="936.43" x2="613.42" y1="646.29" x1="445.91"
                        id="未命名的渐变_402-6"></linearGradient>
        <linearGradient xlink:href="#未命名的渐变_402" y2="685.72" x2="669.36" y1="599.81" x1="619.76"
                        id="未命名的渐变_402-7"></linearGradient>
        <linearGradient xlink:href="#未命名的渐变_6" y2="697.81" x2="674.45" y1="697.81" x1="387.94" id="未命名的渐变_6-7"></linearGradient>
        <linearGradient gradientUnits="userSpaceOnUse" y2="852.29" x2="616.31" y1="786.59" x1="578.38" id="未命名的渐变_1114">
            <stop stop-color="#828282" offset="0"></stop>
            <stop stop-color="#424242" offset="1"></stop>
        </linearGradient>
        <linearGradient xlink:href="#未命名的渐变_1114" y2="877.62" x2="634.94" y1="840.21" x1="613.34"
                        id="未命名的渐变_1114-2"></linearGradient>
        <linearGradient xlink:href="#未命名的渐变_402" y2="717.98" x2="576.39" y1="553.52" x1="481.43"
                        id="未命名的渐变_402-8"></linearGradient>
        <linearGradient xlink:href="#未命名的渐变_402" y2="679.72" x2="424.3" y1="609.87" x1="383.97"
                        id="未命名的渐变_402-9"></linearGradient>
        <linearGradient xlink:href="#未命名的渐变_6" gradientTransform="matrix(0.96, -0.28, 0.28, 0.96, 518.1, -298.29)" y2="736.7"
                        x2="-293.82" y1="720.8" x1="-297.65" id="未命名的渐变_6-8"></linearGradient>
        <linearGradient gradientUnits="userSpaceOnUse" y2="544.31" x2="448.23" y1="570.61" x1="544.83" id="未命名的渐变_8">
            <stop stop-color="#a6a6a6" offset="0"></stop>
            <stop stop-color="#a1a1a1" offset="0.23"></stop>
            <stop stop-color="#919191" offset="0.51"></stop>
            <stop stop-color="#787878" offset="0.82"></stop>
            <stop stop-color="#666" offset="1"></stop>
        </linearGradient>
    </defs>
    <title>暂无数据（无字）</title>
    <path d="M929,756.24c-1.33,0-2.63.17-4,.23-14.34-52.26-67.29-91.11-130.59-91.11a149.47,149.47,0,0,0-45.86,7.15c-15.41-21.75-44.08-62.13-57.43-80.52a31,31,0,0,0-23.67-13c-10.87-.39-23.41,2.13-29.42,10.15v0a13.73,13.73,0,0,0-7.12-2.43v0c-4.78-8.74-9.14-7.54-88.64-7.39,3.49-15.94.19-31.24-9.26-41.7a51.4,51.4,0,0,0-7.78-7.11c-2.94-13.29-13.3-22.2-22.21-27.6-11.5-6.95-26.57-11.45-38.41-11.45a2.73,2.73,0,0,0,0,5.45c8.29,0,22.58,2.79,35.58,10.66,6.62,4,14.13,10.14,17.93,18.74-10.07-4.54-19.57-3.11-26.34.83-9.64,5.6-14.14,16.29-10.94,26,2.95,9,12.92,14.27,23.67,12.54,9.9-1.58,21.46-9.71,21.55-27.38,1,.92,1.94,1.91,2.91,3,8.47,9.39,11.26,23.42,7.71,38.06h-7.85c-92.45,0-97.06-1.83-102.09,7.38v0a13.91,13.91,0,0,0-7.08,2.39c-6.05-8-18.59-10.54-29.46-10.15a30.85,30.85,0,0,0-23.62,13C358,603.89,343,625,329.24,644.3c-2.51.38-5,.87-7.42,1.46-11.64-22.78-37.43-38.65-67.46-38.65-34.86,0-64,21.39-71.92,50.18-.73,0-1.45-.13-2.18-.13-25,0-46.27,18.62-53.95,44.49H292.66c-7.58,28.06,16.47,41.75,35.49,34.38,4.73-1.87,9-6.18,11.47-11.64l0-.08L352,701.65h5.13a74.82,74.82,0,0,1,3,20.48V862.8A43.15,43.15,0,0,0,403.2,906H654.61a43.2,43.2,0,0,0,43.2-43.2V837H1027C1013.05,790.05,974.52,756.24,929,756.24ZM503.73,560.33c-6.71,1-15.13-1.24-17.64-8.87-2.38-7.23,1.12-15.27,8.5-19.57A21.77,21.77,0,0,1,505.48,529a27.24,27.24,0,0,1,14.88,4.75,28.45,28.45,0,0,1,.33,4.4C520.68,552.51,511.92,559,503.73,560.33ZM703.34,697.06l-1.51,1.24c.28-.8.57-1.61.88-2.39Zm-326.65,4.71c-.1.45-.21.89-.29,1.36C376.48,702.66,376.59,702.22,376.69,701.77Zm-.51,2.67c-.08.46-.15.91-.21,1.38a.91.91,0,0,1,0-.17C376,705.23,376.11,704.85,376.18,704.44Zm304.37-5c.12.41.24.81.35,1.24C680.79,700.29,680.67,699.89,680.55,699.48Zm.62,2.49c.09.45.2.88.29,1.35C681.37,702.85,681.26,702.42,681.17,702Zm.5,2.69c.07.47.16.93.22,1.43v0C681.83,705.61,681.74,705.14,681.67,704.66Zm-1.44-6.35c-.13-.4-.26-.77-.4-1.15C680,697.54,680.1,697.91,680.23,698.31Zm-.76-2.21c-.14-.37-.29-.71-.43-1.06C679.18,695.39,679.33,695.73,679.47,696.1Zm-.82-2c-.16-.34-.32-.66-.48-1C678.33,693.42,678.49,693.74,678.65,694.08Zm-.88-1.84-.5-.9Zm-.92-1.66c-.16-.28-.33-.54-.5-.8C676.52,690,676.69,690.3,676.85,690.58Zm-.93-1.49-.49-.7Zm-.93-1.33c-.17-.23-.34-.44-.51-.65C674.65,687.32,674.82,687.53,675,687.76Zm-.92-1.17-.49-.57Zm-.88-1-.42-.45Zm-.82-.86c-.13-.14-.25-.25-.38-.37C672.12,684.47,672.24,684.58,672.37,684.72Zm-2.83-2.37a2,2,0,0,1,.42.3c.24.17.58.42,1,.77-.41-.35-.75-.6-1-.77a25.75,25.75,0,0,0-4.13-.3Zm2.08,1.65-.41-.36Z"
          class="cls-1"></path>
    <path d="M763.4,939.78c6.29-9.57,15.78-17.42,24.61-24,1.37-1,2.76-2,4.18-3,7.31,16.85,48.67,12.08,55.1,12.38,6.67.3-1-15.67-16.71-28-15.25-11.94-40.84-.7-39.31,12.36-1.73,1.12-3.39,2.36-5,3.56-7,5.21-14.35,11.15-20.31,18.13.93-1.63,1.91-3.24,2.84-4.88,3.06-5.05,6.18-10.21,8.25-15.87a42.58,42.58,0,0,0,1.35-4.56,48,48,0,0,1,6.89-8.2,82.88,82.88,0,0,1,10.49-7.92c2.3-1.56,4.68-3.16,6.93-4.9a40.83,40.83,0,0,0,9.39-9.77c9.88,1,24.46-16.06,27.23-18.48,3.12-2.7-6.44-6.61-18.22-5.45s-19.05,18.09-12.33,22.73l.22.13a39,39,0,0,1-8.13,8.19c-2.18,1.68-4.51,3.25-6.77,4.78a86.22,86.22,0,0,0-10.89,8.23,47.64,47.64,0,0,0-3.71,3.95,46.89,46.89,0,0,0-2.3-19.21,7.21,7.21,0,0,0,1.58-.72c7.78-4.76.63-24.15-12.48-26.2s-24,1.72-20.69,4.94c2.88,2.79,17.38,21.76,28.38,22.39a43.07,43.07,0,0,1,1.49,24.18,96.27,96.27,0,0,0-9.27,19,19.28,19.28,0,0,0-.68,2.11l-.75,1.24a22.71,22.71,0,0,0,.9-3.36c1.78-9.52-.9-20.31-7.31-28.83a46.77,46.77,0,0,0-9.29-9.12c2.82-8.88-12.28-22.22-25.33-17.67-13.86,4.84-22.81,14.25-18,15.68,4.62,1.37,32.83,15,41.73,4.79a44,44,0,0,1,8.48,8.42c5.85,7.73,8.35,17.49,6.68,26.07a57,57,0,0,1-2.09,7.22l-.41,1.27c-.64,1.87-1.22,3.76-1.75,5.69-.26.85-.51,1.7-.74,2.55l-8-.18c-144.05-3.22-291.94-.27-409.36,5.28-.1-.35-.2-.71-.31-1.06-.29-1-.62-2-1-3l-.23-.67a29.47,29.47,0,0,1-1.15-3.77,16.87,16.87,0,0,1,3.69-13.63,23.83,23.83,0,0,1,4.69-4.4c4.92,5.3,20.48-1.79,23-2.51s-2.3-5.67-10-8.2c-7.21-2.38-15.54,4.6-14,9.24a25.53,25.53,0,0,0-5.13,4.77,18.8,18.8,0,0,0-4,15.07,11.13,11.13,0,0,0,.49,1.76l-.41-.65c-.1-.38-.24-.75-.37-1.1a49.72,49.72,0,0,0-5.12-9.92,21.4,21.4,0,0,1,.82-12.67c6.07-.33,14.08-10.25,15.67-11.71,1.83-1.68-4.19-3.65-11.43-2.58s-11.18,11.21-6.88,13.7a4.78,4.78,0,0,0,.87.38,23.19,23.19,0,0,0-1.27,10.06,23.66,23.66,0,0,0-2.05-2.08,46,46,0,0,0-6-4.31c-1.25-.8-2.54-1.62-3.74-2.5a21,21,0,0,1-4.49-4.28.47.47,0,0,0,.12-.07c3.09-2,.83-8.46-3.75-10.93,8.65-1.6,17.91-6.07,20.19-6.78,4-1.23-3.45-9.34-14.89-13.51-10.79-3.93-23.26,7.58-20.92,15.23A40.11,40.11,0,0,0,285,902.5a33.43,33.43,0,0,0-6,24.84,20.65,20.65,0,0,0,.74,2.91c-.19-.35-.41-.71-.62-1.07a16.79,16.79,0,0,0-.56-1.82A84.39,84.39,0,0,0,270.9,911a38.71,38.71,0,0,1,1.23-20.84c9.09-.55,21.07-16.9,23.44-19.3,2.75-2.77-6.26-6-17.08-4.25s-16.74,18.48-10.31,22.58a6.26,6.26,0,0,0,1.31.62,41.8,41.8,0,0,0-1.9,16.55,39.57,39.57,0,0,0-3.07-3.4,70.47,70.47,0,0,0-9-7.1c-1.86-1.31-3.79-2.67-5.59-4.11a33.09,33.09,0,0,1-6.71-7.06l.18-.11c5.55-4-.45-18.59-10.18-19.59s-17.62,2.37-15.05,4.7c2.29,2.08,14.33,16.83,22.49,15.92a34.67,34.67,0,0,0,7.75,8.42c1.87,1.5,3.83,2.88,5.73,4.22A69.79,69.79,0,0,1,262.8,905a41.49,41.49,0,0,1,5.69,7.07c.31,1.33.67,2.65,1.11,3.94a80.72,80.72,0,0,0,6.82,13.67c.77,1.41,1.58,2.8,2.35,4.21-4.92-6-11-11.14-16.78-15.63-1.34-1-2.71-2.1-4.14-3.07,1.27-11.25-19.87-20.94-32.46-10.65-13,10.62-19.31,24.38-13.8,24.12,5.31-.25,39.46,3.85,45.5-10.68,1.17.83,2.32,1.71,3.46,2.57,7.3,5.72,15.14,12.49,20.33,20.75a35.28,35.28,0,0,1,2,3.5c.47.9.93,1.87,1.31,2.82l0,.06C134.93,956.6,57,969.45,145.43,976.39c161.88,12.7,319.7,19.14,215.44,33.36s-27.61,20.3,63,19.92,276.44-13,318.41-37C783.69,969,1111.4,948.28,763.4,939.78ZM287.05,904.32a37,37,0,0,1,7-7.25,8.18,8.18,0,0,0,3.25,2.31c-2,.61-3,1.5-2.1,2.23,1.53,1.26,9.59,10.22,15,9.66a22.21,22.21,0,0,0,5.17,5.11c1.25.91,2.56,1.75,3.83,2.56a44.5,44.5,0,0,1,5.79,4.14,26.06,26.06,0,0,1,3.82,4.33,21.13,21.13,0,0,0,.73,2.34,47.07,47.07,0,0,0,4.55,8.3c.52.86,1.06,1.7,1.57,2.55a67.31,67.31,0,0,0-11.21-9.48c-.89-.63-1.81-1.27-2.77-1.86.85-6.83-13.28-12.71-21.69-6.46-8.68,6.44-12.91,14.79-9.23,14.63s26.38,2.34,30.41-6.48c.79.5,1.55,1,2.31,1.56,4.82,3.43,10,7.47,13.44,12.39-17.31.83-33.94,1.71-49.79,2.65-.34-1.55-.69-3.09-1.09-4.6-.32-1.3-.67-2.64-1.06-4-.43-1.66-.92-3.3-1.44-4.9l-.34-1.1a50.75,50.75,0,0,1-1.73-6.22C280.16,919.38,282.22,911,287.05,904.32Z"
          class="cls-1"></path>
    <path d="M707.13,523a8.32,8.32,0,1,0,0-16.64,8.35,8.35,0,0,0-8.32,8.32A8.18,8.18,0,0,0,707.13,523Z" class="cls-1"></path>
    <path d="M689.1,468.4c-3.6,13.31-6.38,16.36-20,20,13.58,3.6,16.36,6.38,20,20,3.61-13.59,6.38-16.37,20-20C695.48,484.76,692.43,482,689.1,468.4Z"
          class="cls-1"></path>
    <path d="M184.05,842.58c8.32,2.22,10,3.89,12.2,12.21,2.22-8.32,3.88-10,12.2-12.21-5.38-1.43-8.09-2.65-9.86-5.57h93.1c-4.19-32.79-35.52-58.28-73.59-58.28-.82,0-1.64,0-2.46,0A104.59,104.59,0,0,1,212.33,768a109.47,109.47,0,0,1-3.56,11.31,83.45,83.45,0,0,0-10.25,1.84c-11.65-22.78-37.44-38.66-67.46-38.66-34.87,0-64,21.4-71.93,50.18-.73,0-1.44-.13-2.18-.13-25,0-46.27,18.63-53.95,44.49H193.78C192,839.93,189.43,841.15,184.05,842.58Z"
          class="cls-1"></path>
    <path d="M439,476.57a8.18,8.18,0,1,0,10.16,5.52A8.18,8.18,0,0,0,439,476.57Z" class="cls-1"></path>
    <g class="cls-2">
        <path d="M341.41,643.36a82.75,82.75,0,0,0-19.59,2.4c-11.64-22.78-37.43-38.65-67.46-38.65-34.86,0-64,21.39-71.92,50.18-.73,0-1.45-.13-2.18-.13-25,0-46.27,18.62-53.95,44.49H415C410.81,668.86,379.48,643.36,341.41,643.36Z"
              class="cls-3"></path>
        <path d="M218.1,778.73a82.6,82.6,0,0,0-19.58,2.4c-11.65-22.78-37.44-38.66-67.46-38.66-34.87,0-64,21.4-71.93,50.18-.73,0-1.44-.13-2.18-.13-25,0-46.27,18.63-53.95,44.49H291.69C287.5,804.22,256.17,778.73,218.1,778.73Z"
              class="cls-4"></path>
        <path d="M636.45,731.19A150.17,150.17,0,0,1,672,735.54c21.14-41.36,68-70.18,122.48-70.18,63.3,0,116.25,38.85,130.59,91.11,1.33-.06,2.63-.23,4-.23,45.48,0,84,33.81,98,80.77H502.82C510.43,777.47,567.32,731.19,636.45,731.19Z"
              class="cls-5"></path>
        <path d="M756,857.59c5.48,4.74,10.31,9.13,13.93,14.65a42.38,42.38,0,0,1,4.18,37c-1.91,5.32-5,10.37-7.9,15.27-.46.82-1,1.61-1.42,2.37a87.38,87.38,0,0,0-5.59,10.53,41.69,41.69,0,0,0-1.63,4.47,33.64,33.64,0,0,0-1.11,4.25l-.71,3.54c.75.4,1.47.72,2.12,1.07l.49-1.16,1.08-2.49a32.88,32.88,0,0,1,1.59-3.27,38.45,38.45,0,0,1,2.38-4.06c6.28-9.59,15.78-17.44,24.62-24.08,3.36-2.46,6.78-5,10.67-6.36,6-2.13,12.78-1.09,18.78-.21l.38-3.29c-6.32-.91-13.45-2-20.15.4-4.3,1.46-7.93,4.2-11.43,6.8-7,5.21-14.35,11.15-20.31,18.13.93-1.63,1.91-3.24,2.84-4.88,3.06-5.05,6.18-10.21,8.25-15.87a46,46,0,0,0-4.53-40.09C768.6,864.47,763.37,859.8,758,855Z"
              class="cls-6"></path>
        <path d="M735.06,877.81,734,880.92c9.31,3.68,16.91,9.2,22,15.92,5.85,7.73,8.35,17.49,6.68,26.07a57,57,0,0,1-2.09,7.22l-.41,1.27c-.64,1.87-1.22,3.76-1.75,5.69-.47,1.52-.89,3.08-1.28,4.58-.7,2.55-1.29,5.15-1.88,7.76l.54.29c.75.4,1.47.72,2.12,1.07l.21.12a10,10,0,0,1,.28-1.28c.43-2.12,1-4.25,1.54-6.37.37-1.59.87-3.17,1.28-4.73.59-2,1.23-4,1.86-6l.42-1.27c.47-1.39,1-2.83,1.33-4.28a22.71,22.71,0,0,0,.9-3.36c1.78-9.52-.9-20.31-7.31-28.83C753,887.62,744.9,881.77,735.06,877.81Z"
              class="cls-7"></path>
        <path d="M765.64,929.77l1.44-1.2c-.4-1,1.54-2.5,2-3.78,3.24-8.59,8-19.44,16.18-27.1a82.88,82.88,0,0,1,10.49-7.92c2.3-1.56,4.68-3.16,6.93-4.9,7.41-5.7,11.82-12,13.13-18.66l-3.06-.66c-1.14,5.86-5.15,11.47-11.91,16.67-2.18,1.68-4.51,3.25-6.77,4.78a86.22,86.22,0,0,0-10.89,8.23c-8.66,8.13-13.63,19.42-17,28.35C765.49,925.45,764.81,927.63,765.64,929.77Z"
              class="cls-7"></path>
        <path d="M748.35,887.2c5.41-8.75-10.76-24.08-24.61-19.25s-22.81,14.25-18,15.68S740.68,899.61,748.35,887.2Z" class="cls-8"></path>
        <path d="M778.77,879.25c7.78-4.76.63-24.15-12.48-26.2s-24,1.72-20.69,4.94S767.74,886,778.77,879.25Z" class="cls-8"></path>
        <path d="M791.5,910.76c-3.4-13.57,23.35-25.93,39.08-13.61s23.38,28.29,16.71,28S796.32,930,791.5,910.76Z" class="cls-8"></path>
        <path d="M808.77,873.9c-6.72-4.64.55-21.57,12.33-22.73s21.34,2.75,18.22,5.45S818.3,880.48,808.77,873.9Z" class="cls-8"></path>
        <path d="M341.23,902.11a38.75,38.75,0,0,0-7.69,7.66,21.17,21.17,0,0,0-2.31,19.38,46,46,0,0,0,4.36,8c.25.43.54.84.78,1.24a44.22,44.22,0,0,1,3.09,5.51,20.41,20.41,0,0,1,.9,2.33,16.27,16.27,0,0,1,.61,2.22l.39,1.85c-.41.22-.81.38-1.16.56l-.28-.6-.59-1.3a17.22,17.22,0,0,0-.88-1.71,22.11,22.11,0,0,0-1.31-2.13c-3.47-5-8.72-9.12-13.6-12.59a23.17,23.17,0,0,0-5.89-3.32c-3.29-1.11-7-.57-10.36-.11l-.21-1.72c3.49-.48,7.42-1,11.12.2a24.1,24.1,0,0,1,6.31,3.56,67.31,67.31,0,0,1,11.21,9.48c-.51-.85-1.05-1.69-1.57-2.55a47.07,47.07,0,0,1-4.55-8.3,23,23,0,0,1,2.5-21,43.55,43.55,0,0,1,8-8Z"
              class="cls-9"></path>
        <path d="M352.78,912.69l.61,1.62a27.67,27.67,0,0,0-12.13,8.33,16.87,16.87,0,0,0-3.69,13.63,29.47,29.47,0,0,0,1.15,3.77l.23.67c.35,1,.68,2,1,3,.26.8.49,1.61.7,2.4.39,1.33.71,2.69,1,4l-.3.15c-.41.22-.81.38-1.16.56l-.12.07a4.68,4.68,0,0,0-.16-.67c-.23-1.11-.54-2.22-.85-3.33-.2-.83-.48-1.66-.71-2.47-.32-1.07-.67-2.12-1-3.17l-.23-.67c-.26-.72-.54-1.47-.74-2.23a11.13,11.13,0,0,1-.49-1.76,18.8,18.8,0,0,1,4-15.07A29.89,29.89,0,0,1,352.78,912.69Z"
              class="cls-7"></path>
        <path d="M335.89,939.85l-.79-.62c.22-.53-.85-1.31-1.11-2-1.79-4.49-4.43-10.16-8.94-14.17a44.5,44.5,0,0,0-5.79-4.14c-1.27-.81-2.58-1.65-3.83-2.56-4.08-3-6.52-6.26-7.24-9.76l1.69-.34c.63,3.06,2.84,6,6.57,8.71,1.2.88,2.49,1.7,3.74,2.5a46,46,0,0,1,6,4.31c4.78,4.25,7.53,10.15,9.39,14.82A4.25,4.25,0,0,1,335.89,939.85Z"
              class="cls-7"></path>
        <path d="M345.44,917.6c-3-4.58,5.93-12.6,13.58-10.07s12.6,7.45,10,8.2S349.67,924.08,345.44,917.6Z" class="cls-8"></path>
        <path d="M328.65,913.44c-4.3-2.49-.35-12.63,6.88-13.7s13.26.9,11.43,2.58S334.74,917,328.65,913.44Z" class="cls-8"></path>
        <path d="M321.62,929.91c1.87-7.09-12.89-13.55-21.57-7.11s-12.91,14.79-9.23,14.63S319,940,321.62,929.91Z" class="cls-8"></path>
        <path d="M312.08,910.64c3.72-2.42-.3-11.28-6.8-11.88s-11.78,1.43-10.06,2.85S306.82,914.08,312.08,910.64Z" class="cls-8"></path>
        <path d="M287,870.49c-4.52,4.08-8.52,7.87-11.5,12.62A37.92,37.92,0,0,0,272,915a80.23,80.23,0,0,0,6.52,13.17c.39.7.82,1.38,1.18,2a75.69,75.69,0,0,1,4.62,9.07,38,38,0,0,1,1.34,3.85,29.69,29.69,0,0,1,.92,3.66l.59,3c-.62.35-1.22.63-1.75.93l-.41-1-.89-2.15c-.38-.95-.84-1.92-1.31-2.82a35.28,35.28,0,0,0-2-3.5c-5.19-8.26-13-15-20.33-20.75-2.78-2.12-5.6-4.34-8.82-5.48-4.93-1.83-10.55-.94-15.5-.18l-.32-2.83c5.22-.79,11.11-1.71,16.64.34,3.55,1.26,6.55,3.62,9.44,5.86,5.78,4.49,11.86,9.61,16.78,15.63-.77-1.41-1.58-2.8-2.35-4.21a80.72,80.72,0,0,1-6.82-13.67,41.17,41.17,0,0,1,3.75-34.55c3.22-5.08,7.55-9.11,12-13.22Z"
              class="cls-10"></path>
        <path d="M304.28,887.92l.92,2.68a41.61,41.61,0,0,0-18.15,13.72c-4.83,6.65-6.89,15.06-5.52,22.46a50.75,50.75,0,0,0,1.73,6.22l.34,1.1c.52,1.6,1,3.24,1.44,4.9.39,1.31.74,2.65,1.06,4,.58,2.19,1.06,4.44,1.55,6.68l-.44.25c-.62.35-1.22.63-1.75.93l-.18.1a8.9,8.9,0,0,0-.23-1.1c-.35-1.83-.81-3.66-1.27-5.49-.3-1.37-.72-2.73-1.06-4.08-.48-1.75-1-3.48-1.54-5.21l-.34-1.1c-.39-1.2-.8-2.44-1.1-3.68a20.65,20.65,0,0,1-.74-2.91,33.43,33.43,0,0,1,6-24.84A45.15,45.15,0,0,1,304.28,887.92Z"
              class="cls-7"></path>
        <path d="M279,932.69l-1.18-1c.32-.86-1.28-2.16-1.67-3.26-2.68-7.4-6.62-16.75-13.37-23.36a69.79,69.79,0,0,0-8.66-6.82c-1.9-1.34-3.86-2.72-5.73-4.22-6.11-4.91-9.76-10.32-10.84-16.08l2.53-.57c.94,5,4.25,9.88,9.83,14.37,1.8,1.44,3.73,2.8,5.59,4.11a70.47,70.47,0,0,1,9,7.1c7.15,7,11.26,16.73,14,24.43C279.14,929,279.71,930.85,279,932.69Z"
              class="cls-7"></path>
        <path d="M293.3,896c-4.47-7.55,8.89-20.76,20.33-16.59s18.84,12.28,14.89,13.51S299.64,906.7,293.3,896Z" class="cls-8"></path>
        <path d="M268.18,889.16c-6.43-4.1-.52-20.82,10.31-22.58s19.83,1.48,17.08,4.25S277.29,895,268.18,889.16Z" class="cls-8"></path>
        <path d="M257.66,916.31c2.81-11.69-19.28-22.35-32.27-11.73S206.08,929,211.59,928.7,253.68,932.87,257.66,916.31Z"
              class="cls-8"></path>
        <path d="M243.4,884.55c5.55-4-.45-18.59-10.18-19.59s-17.62,2.37-15.05,4.7S235.53,890.22,243.4,884.55Z" class="cls-8"></path>
        <path d="M145.43,976.39c161.88,12.7,319.7,19.14,215.44,33.36s-27.61,20.3,63,19.92,276.44-13,318.41-37,377.67-44.94,7.34-53.22S-16.45,963.68,145.43,976.39Z"
              class="cls-11"></path>
        <circle r="8.32" cy="514.72" cx="707.13" class="cls-12"></circle>
        <path d="M849.56,806.38c-11.37,3-13.59,5.27-16.64,16.64-3-11.37-5.27-13.59-16.64-16.64,11.09-3,13.59-5.54,16.64-16.64C835.69,800.84,838.19,803.33,849.56,806.38Z"
              class="cls-13"></path>
        <path d="M709.07,488.37c-13.59,3.6-16.36,6.38-20,20-3.6-13.59-6.38-16.37-20-20,13.58-3.61,16.36-6.66,20-20C692.43,482,695.48,484.76,709.07,488.37Z"
              class="cls-14"></path>
        <circle r="12.2" cy="842.58" cx="196.25" class="cls-15"></circle>
        <path d="M244.23,799.87c-21.63,5.55-26.07,10.26-31.9,31.9-5.54-21.64-10.26-26.07-31.89-31.9,21.63-5.54,26.07-10.26,31.89-31.89C217.88,789.33,222.6,794.05,244.23,799.87Z"
              class="cls-16"></path>
        <path d="M747.91,700a13.86,13.86,0,0,1,2.56,9.43C749.36,723.11,735.2,722.13,733,716l-11-16.76c7.59-8,20.09-6.65,25.67.47Z"
              class="cls-17"></path>
        <path d="M724.2,674.84c-10.49,2-17.4,10.71-21.49,21.07a73.37,73.37,0,0,0-4.9,26.22v-7.8c0-32.24-2.6-36.89-14.12-54.54l-41.27-66.14a14.36,14.36,0,0,0-4.31-4.43v0c6-8,18.55-10.54,29.42-10.15a31,31,0,0,1,23.67,13C710,617.83,759,687.08,759,687.08c.77,1.32,1.45,2.64,2.09,3.92-5.16-9-14.71-18.2-31.55-16.88A49.52,49.52,0,0,0,724.2,674.84Z"
              class="cls-18"></path>
        <path d="M761,691c17.53,35.14-10.1,53.26-31.34,45-4.77-1.83-9-6.18-11.51-11.64a22.86,22.86,0,0,1,2.13-23.11,20.63,20.63,0,0,1,1.66-2L733,716c2.21,6.14,16.37,7.12,17.48-6.52a13.86,13.86,0,0,0-2.56-9.43l-.26-.34-18.16-25.58C746.33,672.8,755.88,682,761,691Z"
              class="cls-19"></path>
        <path d="M729.49,674.12l18.16,25.58c-5.58-7.12-18.08-8.48-25.67-.47a20.63,20.63,0,0,0-1.66,2,22.86,22.86,0,0,0-2.13,23.11l-15.48-28.48c4.09-10.36,11-19,21.49-21.07A49.52,49.52,0,0,1,729.49,674.12Z"
              class="cls-20"></path>
        <path d="M387.85,682.65a31.91,31.91,0,0,0-27.8,31.68c0-32.24,2.56-36.89,14.07-54.54a14.75,14.75,0,0,0,12.54,22.56h1.62A1.91,1.91,0,0,0,387.85,682.65Z"
              class="cls-21"></path>
        <path d="M374.12,659.79c-11.51,17.65-14.07,22.3-14.07,54.54v7.8a72.66,72.66,0,0,0-4.95-26.27c-4.09-10.31-11-19-21.49-21a49.52,49.52,0,0,0-5.29-.72c-16.41-1.32-25.92,7.46-31.17,16.24.51-1.06,1.11-2.17,1.75-3.28,0,0,49-69.25,67.76-95.09a30.85,30.85,0,0,1,23.62-13c10.87-.39,23.41,2.13,29.46,10.15v0a13.52,13.52,0,0,0-4.34,4.43Z"
              class="cls-22"></path>
        <path d="M528.91,579.37c92.48,0,97.05-1.83,102.08,7.38v0a4.3,4.3,0,0,0-1.07-.09h-202a4.67,4.67,0,0,0-1.11.09v0C431.85,577.54,436.46,579.37,528.91,579.37Z"
              class="cls-23"></path>
        <path d="M683.69,659.79c11.52,17.65,14.12,22.3,14.12,54.54A32,32,0,0,0,670,682.65a2,2,0,0,0-.42-.3h1.66A14.74,14.74,0,0,0,683.69,659.79Z"
              class="cls-24"></path>
        <path d="M333.61,674.84c10.49,2,17.4,10.71,21.49,21l-15.44,28.45a22.79,22.79,0,0,0-2.13-23,17,17,0,0,0-1.7-2c-7.59-7.93-19.87-6.65-25.54.3l18-25.41A49.52,49.52,0,0,1,333.61,674.84Z"
              class="cls-25"></path>
        <path d="M337.53,701.28a22.79,22.79,0,0,1,2.13,23l0,.08c-2.43,5.46-6.74,9.77-11.47,11.64-21.36,8.28-49.08-10-31.17-45.41,0-.09.13-.17.17-.26,5.25-8.78,14.76-17.56,31.17-16.24l-18,25.41-.35.51a13.67,13.67,0,0,0-2.6,9.43c1.11,13.64,15.31,12.66,17.53,6.52l11-16.76A17,17,0,0,1,337.53,701.28Z"
              class="cls-26"></path>
        <path d="M335.83,699.23l-11,16.76c-2.22,6.14-16.42,7.12-17.53-6.52a13.67,13.67,0,0,1,2.6-9.43l.35-.51C316,692.58,328.24,691.3,335.83,699.23Z"
              class="cls-27"></path>
        <path d="M697.81,722.13V862.76a43.2,43.2,0,0,1-43.2,43.2H403.2a43.15,43.15,0,0,1-43.15-43.16V714.33a31.91,31.91,0,0,1,27.8-31.68c-1.92,1.36-9.81,7.83-11.87,23a6.62,6.62,0,0,0,6.49,7.61H675.36a6.5,6.5,0,0,0,6.53-7.17c-2-15.49-10-22.06-11.93-23.44a32,32,0,0,1,27.85,31.68Zm-35.18,97.31a10.58,10.58,0,0,0-10.58-10.58H542.59a10.64,10.64,0,0,0-10.53,10.58A10.56,10.56,0,0,0,542.59,830H652.05a10.64,10.64,0,0,0,10.58-10.57Zm-5.84,39.48a10.58,10.58,0,0,0-10.58-10.57H602a10.64,10.64,0,0,0-10.53,10.57A10.57,10.57,0,0,0,602,869.5h44.18a10.53,10.53,0,0,0,7.46-3.11A10.41,10.41,0,0,0,656.79,858.92Z"
              class="cls-28"></path>
        <path d="M683.69,659.79a14.74,14.74,0,0,1-12.49,22.56H638.11V589.22a14.36,14.36,0,0,1,4.31,4.43Z" class="cls-29"></path>
        <path d="M675.43,713.26h-293a6.44,6.44,0,0,1-6.47-7.1c2-15.54,10-22.13,11.94-23.51a26.29,26.29,0,0,1,4.18-.3h273.8a25.75,25.75,0,0,1,4.13.3c1.95,1.38,10,8,11.94,23.51A6.44,6.44,0,0,1,675.43,713.26Z"
              class="cls-30"></path>
        <path d="M652.05,808.86a10.58,10.58,0,0,1,10.58,10.58A10.64,10.64,0,0,1,652.05,830H542.59a10.56,10.56,0,0,1-10.53-10.57,10.64,10.64,0,0,1,10.53-10.58Z"
              class="cls-31"></path>
        <path d="M646.21,848.35a10.58,10.58,0,0,1,10.58,10.57,10.41,10.41,0,0,1-3.12,7.47,10.53,10.53,0,0,1-7.46,3.11H602a10.57,10.57,0,0,1-10.53-10.58A10.64,10.64,0,0,1,602,848.35Z"
              class="cls-32"></path>
        <path d="M638.11,589.22v93.13H419.74V589.18a13.91,13.91,0,0,1,7.08-2.39,4.67,4.67,0,0,1,1.11-.09h202a4.3,4.3,0,0,1,1.07.09A13.73,13.73,0,0,1,638.11,589.22Z"
              class="cls-33"></path>
        <path d="M419.74,589.22v93.13H386.66a14.75,14.75,0,0,1-12.54-22.56l41.28-66.14A13.52,13.52,0,0,1,419.74,589.22Z"
              class="cls-34"></path>
        <path d="M392,835.65c-.52,9.82-.65,20.16,4.52,28.91a24.46,24.46,0,0,0,9.45,9.32c4.83,2.5,10.21,3.11,15.58,3.22a5.45,5.45,0,1,0,0-10.9c-1,0-2.1-.05-3.15-.13-.53,0-1.05-.07-1.58-.13-1.12-.12,1.21.25-.73-.1a26,26,0,0,1-2.74-.65,8.47,8.47,0,0,1-2.11-.85,14.64,14.64,0,0,1-2-1.28c.76.59-.5-.49-.52-.51l-.75-.75c-.3-.32-.59-.65-.88-1s.22.39-.27-.38-1-1.5-1.4-2.3c-.17-.31-.32-.64-.48-1-.77-1.49.14.45-.21-.43s-.62-1.69-.87-2.56a27.37,27.37,0,0,1-1-5.12,92.21,92.21,0,0,1,.05-13.4,5.49,5.49,0,0,0-5.45-5.45,5.58,5.58,0,0,0-5.45,5.45Z"
              class="cls-1"></path>
        <path d="M442.38,877.33c7,0,7-10.9,0-10.9s-7,10.9,0,10.9Z" class="cls-1"></path>
        <circle r="8.17" cy="484.41" cx="441.27" class="cls-35"></circle>
        <path d="M507.07,619.7a2.72,2.72,0,0,1-.65-5.37c12.93-3.15,24.48-15.52,29.41-31.53,4.89-15.86,2.35-31.37-6.78-41.49-1-1.07-1.94-2.06-2.91-3-.09,17.67-11.65,25.8-21.55,27.38-10.75,1.73-20.72-3.55-23.67-12.54-3.2-9.7,1.3-20.39,10.94-26,6.77-3.94,16.27-5.37,26.34-.83-3.8-8.6-11.31-14.73-17.93-18.74C487.27,499.74,473,497,464.69,497a2.73,2.73,0,0,1,0-5.45c11.84,0,26.91,4.5,38.41,11.45,8.91,5.4,19.27,14.31,22.21,27.6a51.4,51.4,0,0,1,7.78,7.11c10.44,11.56,13.41,29,7.95,46.75-5.57,18.07-18.34,31.56-33.33,35.21A2.87,2.87,0,0,1,507.07,619.7ZM505.48,529a21.77,21.77,0,0,0-10.89,2.87c-7.38,4.3-10.88,12.34-8.5,19.58,2.51,7.62,10.93,9.9,17.64,8.86,8.19-1.31,16.95-7.82,17-22.16a28.45,28.45,0,0,0-.33-4.4A27.24,27.24,0,0,0,505.48,529Z"
              class="cls-36"></path>
    </g>
</svg>