<?xml version="1.0" standalone="no"?><!DOCTYPE svg PUBLIC "-//W3C//DTD SVG 1.1//EN" "http://www.w3.org/Graphics/SVG/1.1/DTD/svg11.dtd"><svg t="1665032576783" class="icon" viewBox="0 0 1024 1024" version="1.1" xmlns="http://www.w3.org/2000/svg" p-id="2559" xmlns:xlink="http://www.w3.org/1999/xlink" width="200" height="200"><path d="M835 262v500c0 82.842-67.158 150-150 150H340c-82.842 0-150-67.158-150-150V262c0-82.842 67.158-150 150-150h345c82.842 0 150 67.158 150 150z m-90 0c0-33.138-26.862-60-60-60H340c-33.138 0-60 26.862-60 60v500c0 33.138 26.862 60 60 60h345c33.138 0 60-26.862 60-60V262z" p-id="2560"></path><path d="M513 717m-45 0a45 45 0 1 0 90 0 45 45 0 1 0-90 0Z" p-id="2561"></path></svg>